<svg width="45" height="284" viewBox="0 0 45 284" fill="none" xmlns="http://www.w3.org/2000/svg">
<g filter="url(#filter0_d_250_10)">
<path d="M3.42229 5.12261H20.8501V0H25.5532V5.12261H41.5777V7.44937H25.5532C24.605 9.62601 23.05 11.6525 20.8501 13.5102H31.2234V11.1834H36.4006V40.5493H43V43.3452H2V40.5493H9.07354V10.7143H14.2507V13.5102H19.4278C20.0537 12.2718 20.5278 10.2452 20.8501 7.44937H3.42229V5.12261ZM5.77382 57.7748H3.89639C8.44773 54.3598 11.4251 50.1566 12.8474 45.2028H19.4468C18.1952 48.9369 13.6438 53.1213 5.79278 57.7748H5.77382ZM31.2044 40.5306V15.8369H14.2507V20.0214H29.327V22.3481H14.2507V26.5513H29.327V28.878H14.2507V33.5315H29.327V35.8583H14.2507V40.5118H31.2044V40.5306ZM26.5014 44.2646L26.729 43.7955C30.9769 46.5914 34.8076 49.087 38.278 51.2449C37.8039 53.2714 36.7798 55.5231 35.2248 58C32.5509 54.735 29.6494 50.1566 26.5014 44.2459V44.2646Z" fill="#1C2F5A"/>
</g>
<g filter="url(#filter1_d_250_10)">
<path d="M24.0322 76.7821H37.2796V74.8612H42V82.5642C40.896 81.2836 40.0205 80.7209 39.3924 80.8761C38.7643 80.8761 38.06 81.6716 37.2606 83.2821V79.4209H7.72035V84H3V74.609H7.72035V76.7821H22.1288C21.5007 75.9866 20.6252 74.2985 19.5212 71.7179L19.9971 71C21.7291 71.6403 23.6896 72.4552 25.9165 73.406C25.1171 75.0164 24.489 76.1418 24.0322 76.7821Z" fill="#1C2F5A"/>
<path d="M11.8555 121.407C10.8259 123.02 9.09082 125.101 6.61214 127.613C6.17361 128.156 5.81134 128.606 5.52534 128.981H4C8.80482 123.394 12.7326 117.095 15.8023 110.084H4.87707V107.384H16.6794C17.2514 105.584 17.8424 103.428 18.4335 100.897H8.36628V98.1978H18.853C18.9865 96.9418 19.2915 94.9545 19.7301 92.2549H6.61214V89.5552H19.9398V87.1368C20.0733 86.4244 20.1495 84.6996 20.1495 82H25.3929C25.0878 85.787 24.9543 88.2992 24.9543 89.5552H40.2459V92.2549H24.5158C24.2298 94.4108 23.7913 96.3981 23.2002 98.1978H38.4917V100.897H22.5519C22.1134 102.51 21.3126 104.684 20.1495 107.384H42V110.084H29.988C32.0281 115.296 36.0321 118.726 42 120.339C40.9895 122.87 40.7607 125.288 41.3517 127.631V129C41.1992 129 40.9895 128.906 40.7035 128.719C38.2248 127.275 36.3372 125.569 35.0216 123.582C35.0216 123.582 32.8289 119.982 31.5324 117.639C30.2168 115.296 29.3397 112.783 28.9012 110.084H19.0627C18.3382 111.696 16.7938 114.227 14.4676 117.639L11.8364 121.426L11.8555 121.407Z" fill="#1C2F5A"/>
</g>
<g filter="url(#filter2_d_250_10)">
<path d="M11.1174 151.523H3.15147V149.199H11.1174V146.406H16.2707C16.2707 153.697 12.9862 160.689 6.436 167.343H12.0612V165.018H16.7426C16.7426 177.895 15.0249 187.061 11.5893 192.478C12.9862 194.802 15.1759 196.114 18.1584 196.433H43C40.9613 198.139 40.6593 199.694 42.075 201.082H18.6303C14.7228 200.932 11.6648 199.057 9.49402 195.496C7.30433 198.27 5.41667 200.463 3.86878 202H2C4.3407 199.207 6.30387 196.264 7.87063 193.153C6.15285 188.504 5.20902 181.588 5.05801 172.441H5.28453C5.43554 173.209 5.83195 174.934 6.45488 177.558C7.22882 181.438 8.32366 185.318 9.73941 189.198C11.1363 185.468 11.9291 181.288 12.0801 176.621V169.648H6.45488C5.66206 169.648 4.81262 170.042 3.86878 170.792L3.64227 171.035V167.305C7.87063 164.194 10.3623 158.927 11.1363 151.467L11.1174 151.523ZM17.2145 158.983H25.1805V153.397H19.0833V151.054H25.1805V145H29.8619V151.054H34.5433V149.199H39.2247V158.964H42.9811V161.288H39.2247V171.523H34.5433V169.198H29.8619V175.721H38.7716V178.045H29.8619V184.1H40.1685V186.424H29.8619V195.046H25.1805V186.424H16.7426V184.1H25.1805V178.045H18.6114V175.721H25.1805V169.198H19.0833V166.874H25.1805V161.288H17.2145V158.964V158.983ZM29.8619 153.397V158.983H34.5433V153.397H29.8619ZM29.8619 161.307V166.893H34.5433V161.307H29.8619Z" fill="#1C2F5A"/>
</g>
<g filter="url(#filter3_d_250_10)">
<path d="M24.7608 254.837V259.96H41.1112V262.531H27.3746C30.3699 267.972 35.5784 270.993 43 271.612C40.9586 272.551 40.2336 274.708 40.8632 278.142C33.5942 275.497 28.691 270.299 26.1726 262.531H24.7608V280H20.0293V265.326C17.6636 268.423 12.4551 272.626 4.38483 277.898H2C9.42159 272.776 14.4011 267.653 16.9195 262.531H3.90786V259.96H20.0102V254.837H24.7417H24.7608ZM8.18148 222.225H13.8669C13.2373 224.083 12.5314 225.64 11.7301 226.879H22.147V229.449H12.436C14.0195 230.538 15.6794 231.776 17.4155 233.183C16.9386 234.272 16.08 235.66 14.8018 237.387C13.2182 234.591 12.0354 231.945 11.2531 229.468H10.0703C7.70451 232.583 5.64402 234.91 3.90786 236.448H2.24802C5.87296 232.414 7.85714 227.667 8.18148 222.244V222.225ZM19.7813 238.306V240.877H14.0959V249.977C16.309 249.358 18.5221 248.42 20.7352 247.181V247.651C16.0037 252.004 9.99395 255.1 2.72499 256.976C3.83155 254.65 3.67892 252.548 2.24802 250.69C5.09074 251.16 7.60912 251.235 9.82224 250.916V240.896H3.65984V238.325H19.7622L19.7813 238.306ZM25.6957 222H31.3811C30.7515 223.557 30.0456 225.115 29.2443 226.654H41.3402V229.224H30.6752C32.4114 230.313 34.1475 231.401 35.8837 232.489C35.2541 233.728 34.4718 235.06 33.5179 236.448H36.8376V250.428C36.685 251.197 37.0665 251.516 38.0205 251.366C38.9744 251.366 39.4323 251.066 39.4323 250.428L40.3862 242.265H40.8632V248.795H41.8171L41.5882 253.693C41.4356 255.25 40.6342 255.944 39.2224 255.794H35.9027C33.2127 255.944 32.0298 255.025 32.3541 252.998V240.652H26.4397C26.4397 242.359 26.3634 243.598 26.1917 244.386C27.6226 245.324 29.3588 246.562 31.4002 248.12C31.0758 249.358 30.4463 250.84 29.5114 252.548C27.9279 250.071 26.8213 247.801 26.1917 245.793C25.5621 248.439 23.1201 251.854 18.8464 256.057C18.3695 256.376 18.0642 256.601 17.8925 256.751H16.0037C20.1056 253.955 22.0898 249.677 21.9181 243.935V236.486H26.4207V238.118H32.335V236.486H33.0409C31.3048 233.221 30.1982 230.819 29.7213 229.262H27.5845C26.6305 230.669 24.9898 232.752 22.6049 235.548L22.376 235.773H20.7161C23.8832 231.57 25.524 226.991 25.6957 222.019V222Z" fill="#1C2F5A"/>
</g>
<defs>
<filter id="filter0_d_250_10" x="0" y="0" width="45" height="62" filterUnits="userSpaceOnUse" color-interpolation-filters="sRGB">
<feFlood flood-opacity="0" result="BackgroundImageFix"/>
<feColorMatrix in="SourceAlpha" type="matrix" values="0 0 0 0 0 0 0 0 0 0 0 0 0 0 0 0 0 0 127 0" result="hardAlpha"/>
<feOffset dy="2"/>
<feGaussianBlur stdDeviation="1"/>
<feComposite in2="hardAlpha" operator="out"/>
<feColorMatrix type="matrix" values="0 0 0 0 0 0 0 0 0 0 0 0 0 0 0 0 0 0 0.12 0"/>
<feBlend mode="normal" in2="BackgroundImageFix" result="effect1_dropShadow_250_10"/>
<feBlend mode="normal" in="SourceGraphic" in2="effect1_dropShadow_250_10" result="shape"/>
</filter>
<filter id="filter1_d_250_10" x="1" y="71" width="43" height="62" filterUnits="userSpaceOnUse" color-interpolation-filters="sRGB">
<feFlood flood-opacity="0" result="BackgroundImageFix"/>
<feColorMatrix in="SourceAlpha" type="matrix" values="0 0 0 0 0 0 0 0 0 0 0 0 0 0 0 0 0 0 127 0" result="hardAlpha"/>
<feOffset dy="2"/>
<feGaussianBlur stdDeviation="1"/>
<feComposite in2="hardAlpha" operator="out"/>
<feColorMatrix type="matrix" values="0 0 0 0 0 0 0 0 0 0 0 0 0 0 0 0 0 0 0.12 0"/>
<feBlend mode="normal" in2="BackgroundImageFix" result="effect1_dropShadow_250_10"/>
<feBlend mode="normal" in="SourceGraphic" in2="effect1_dropShadow_250_10" result="shape"/>
</filter>
<filter id="filter2_d_250_10" x="0" y="145" width="45" height="61" filterUnits="userSpaceOnUse" color-interpolation-filters="sRGB">
<feFlood flood-opacity="0" result="BackgroundImageFix"/>
<feColorMatrix in="SourceAlpha" type="matrix" values="0 0 0 0 0 0 0 0 0 0 0 0 0 0 0 0 0 0 127 0" result="hardAlpha"/>
<feOffset dy="2"/>
<feGaussianBlur stdDeviation="1"/>
<feComposite in2="hardAlpha" operator="out"/>
<feColorMatrix type="matrix" values="0 0 0 0 0 0 0 0 0 0 0 0 0 0 0 0 0 0 0.12 0"/>
<feBlend mode="normal" in2="BackgroundImageFix" result="effect1_dropShadow_250_10"/>
<feBlend mode="normal" in="SourceGraphic" in2="effect1_dropShadow_250_10" result="shape"/>
</filter>
<filter id="filter3_d_250_10" x="0" y="222" width="45" height="62" filterUnits="userSpaceOnUse" color-interpolation-filters="sRGB">
<feFlood flood-opacity="0" result="BackgroundImageFix"/>
<feColorMatrix in="SourceAlpha" type="matrix" values="0 0 0 0 0 0 0 0 0 0 0 0 0 0 0 0 0 0 127 0" result="hardAlpha"/>
<feOffset dy="2"/>
<feGaussianBlur stdDeviation="1"/>
<feComposite in2="hardAlpha" operator="out"/>
<feColorMatrix type="matrix" values="0 0 0 0 0 0 0 0 0 0 0 0 0 0 0 0 0 0 0.12 0"/>
<feBlend mode="normal" in2="BackgroundImageFix" result="effect1_dropShadow_250_10"/>
<feBlend mode="normal" in="SourceGraphic" in2="effect1_dropShadow_250_10" result="shape"/>
</filter>
</defs>
</svg>
