<svg width="37" height="17" viewBox="0 0 37 17" fill="none" xmlns="http://www.w3.org/2000/svg">
                                        <g clip-path="url(#clip0_1346_1896)">
                                            <path d="M21.6459 8.64785C21.6484 12.6975 18.3775 16.4229 14.1265 16.3327C10.2907 16.2514 6.98688 12.694 7.00004 8.51442C7.0132 4.18289 10.3269 0.653693 14.3575 0.6749C18.4737 0.696107 21.7652 4.34548 21.6459 8.64785ZM14.3172 3.53166C11.742 3.54138 9.68139 5.75663 9.69208 8.50293C9.70359 11.2881 11.7699 13.4936 14.3567 13.4804C16.9295 13.4671 19.0008 11.2386 18.9827 8.50382C18.9646 5.70538 16.9155 3.52194 14.3172 3.53166Z" fill="white"></path>
                                            <path d="M21.7637 13.1177C21.9355 12.903 22.0128 12.7916 22.1033 12.6953C25.754 8.79235 29.4057 4.89115 33.0581 0.990826C33.1444 0.898045 33.2349 0.800846 33.3401 0.738109C33.5629 0.605565 33.711 0.677139 33.7389 0.960782C33.7504 1.07742 33.7422 1.19583 33.7422 1.31423C33.7422 4.25847 33.7414 7.20271 33.7414 10.1461C33.7414 10.8326 33.7422 10.8326 34.4 10.8318C35.071 10.8318 35.7427 10.8397 36.4137 10.8273C36.6768 10.822 36.7829 10.9148 36.773 11.2091C36.7574 11.7092 36.7599 12.2102 36.7763 12.7103C36.7862 13.0187 36.6768 13.1274 36.3915 13.1212C35.6654 13.1062 34.9394 13.1301 34.2134 13.1089C33.8697 13.0991 33.7192 13.1937 33.7348 13.601C33.7628 14.3503 33.7315 15.1023 33.7455 15.8525C33.7521 16.1839 33.6624 16.3385 33.3278 16.3261C32.7391 16.3049 32.1495 16.3102 31.5608 16.3226C31.2746 16.3288 31.1825 16.2113 31.1899 15.9038C31.2105 15.0802 31.194 14.2558 31.2105 13.4314C31.2154 13.1778 31.148 13.1044 30.9079 13.1053C28.0448 13.1168 25.1818 13.1159 22.3187 13.1177C22.1773 13.1177 22.0342 13.1177 21.7637 13.1177ZM31.1941 6.31466C29.7938 7.8398 28.4387 9.31634 27.0886 10.7867C27.0729 10.777 27.1075 10.8167 27.1412 10.8167C28.3984 10.8203 29.6564 10.8176 30.9137 10.8212C31.1653 10.822 31.199 10.6586 31.1982 10.4447C31.1949 9.85712 31.1949 9.26951 31.1949 8.68189C31.194 7.91049 31.1941 7.13732 31.1941 6.31466Z" fill="white"></path>
                                            <path d="M0.222168 3.42587C0.338105 3.24561 0.384151 3.144 0.454864 3.06977C1.09622 2.38585 1.74662 1.71076 2.38304 1.02153C2.60998 0.775882 2.85172 0.652174 3.18309 0.669847C3.70275 0.696355 4.2257 0.702541 4.74454 0.669847C5.14333 0.644222 5.26091 0.788252 5.25927 1.21858C5.24693 5.90179 5.25433 10.585 5.25022 15.2682C5.2494 16.485 5.40234 16.3074 4.27257 16.3206C3.87542 16.325 3.47745 16.3091 3.08031 16.325C2.78347 16.3374 2.67494 16.2305 2.67658 15.8929C2.68892 13.949 2.68069 12.005 2.67987 10.061C2.67987 7.99951 2.67247 5.93713 2.68809 3.87564C2.69056 3.51954 2.58696 3.40997 2.26628 3.41969C1.6167 3.43913 0.965481 3.42587 0.222168 3.42587Z" fill="white"></path>
                                        </g>
                                        <defs>
                                            <clipPath id="clip0_1346_1896">
                                                <rect width="36.5556" height="15.6667" fill="white" transform="translate(0.222168 0.666992)"></rect>
                                            </clipPath>
                                        </defs>
                                    </svg>